<svg width="1280" height="760" viewBox="0 0 1280 760" fill="none" xmlns="http://www.w3.org/2000/svg">
  <rect width="1280" height="760" fill="#F6F2E8"/>
  <rect x="38" y="28" width="1204" height="62" rx="31" fill="#FFFFFF" stroke="#D7E2DE"/>
  <text x="74" y="66" fill="#12263A" font-family="Arial, sans-serif" font-size="24" font-weight="700">Outlayo</text>
  <rect x="949" y="40" width="128" height="38" rx="19" fill="#FFFFFF" stroke="#C7D4D0"/>
  <text x="975" y="64" fill="#12263A" font-family="Arial, sans-serif" font-size="16" font-weight="600">Explore OSS</text>
  <rect x="1091" y="40" width="118" height="38" rx="19" fill="#0F766E"/>
  <text x="1112" y="64" fill="#FFFFFF" font-family="Arial, sans-serif" font-size="16" font-weight="700">Request access</text>

  <rect x="38" y="110" width="1204" height="286" rx="28" fill="#FFFDFC" stroke="#D7E2DE"/>
  <text x="84" y="168" fill="#0D5F5A" font-family="Arial, sans-serif" font-size="14" font-weight="700" letter-spacing="2">USAGE-BASED SPEND CONTROL</text>
  <text x="84" y="236" fill="#12263A" font-family="Georgia, serif" font-size="52" font-weight="700">Stop surprise usage bills</text>
  <text x="84" y="292" fill="#12263A" font-family="Georgia, serif" font-size="52" font-weight="700">before they hit your runway.</text>
  <text x="84" y="338" fill="#50657A" font-family="Arial, sans-serif" font-size="24">Outlayo intercepts app-side API usage, turns it into spend</text>
  <text x="84" y="370" fill="#50657A" font-family="Arial, sans-serif" font-size="24">signals, and reconciles it with vendor data where strong billing feeds exist.</text>
  <rect x="84" y="414" width="180" height="44" rx="22" fill="#0F766E"/>
  <text x="109" y="442" fill="#FFFFFF" font-family="Arial, sans-serif" font-size="18" font-weight="700">Request early access</text>
  <rect x="278" y="414" width="196" height="44" rx="22" fill="#FFFFFF" stroke="#C7D4D0"/>
  <text x="309" y="442" fill="#12263A" font-family="Arial, sans-serif" font-size="18" font-weight="600">Explore the OSS repo</text>

  <rect x="850" y="148" width="330" height="192" rx="18" fill="#FFFFFF" stroke="#D7E2DE"/>
  <text x="878" y="184" fill="#335067" font-family="Arial, sans-serif" font-size="16" font-weight="700">SIGNAL CONFIDENCE</text>
  <rect x="874" y="206" width="282" height="38" rx="12" fill="#FFFDFC" stroke="#E3EAE7"/>
  <text x="892" y="230" fill="#12263A" font-family="Arial, sans-serif" font-size="16">App-side usage interception</text>
  <text x="1087" y="230" fill="#0D5F5A" font-family="Arial, sans-serif" font-size="16" font-weight="700">Primary</text>
  <rect x="874" y="252" width="282" height="38" rx="12" fill="#FFFDFC" stroke="#E3EAE7"/>
  <text x="892" y="276" fill="#12263A" font-family="Arial, sans-serif" font-size="16">Authoritative vendor feeds</text>
  <text x="1082" y="276" fill="#0D5F5A" font-family="Arial, sans-serif" font-size="16" font-weight="700">Reconcile</text>
  <rect x="874" y="298" width="282" height="38" rx="12" fill="#FFFDFC" stroke="#E3EAE7"/>
  <text x="892" y="322" fill="#12263A" font-family="Arial, sans-serif" font-size="16">Confidence-aware spend model</text>
  <text x="1098" y="322" fill="#0D5F5A" font-family="Arial, sans-serif" font-size="16" font-weight="700">Tracked</text>

  <rect x="38" y="418" width="386" height="128" rx="20" fill="#FFFFFF" stroke="#D7E2DE"/>
  <text x="68" y="454" fill="#335067" font-family="Arial, sans-serif" font-size="14" font-weight="700">DIFFERENTIATOR</text>
  <text x="68" y="488" fill="#12263A" font-family="Arial, sans-serif" font-size="24" font-weight="700">Coverage without waiting on vendors</text>
  <text x="68" y="522" fill="#50657A" font-family="Arial, sans-serif" font-size="18">Intercept real traffic first, so weak billing APIs do not block visibility.</text>

  <rect x="446" y="418" width="386" height="128" rx="20" fill="#FFFFFF" stroke="#D7E2DE"/>
  <text x="476" y="454" fill="#335067" font-family="Arial, sans-serif" font-size="14" font-weight="700">RECONCILIATION</text>
  <text x="476" y="488" fill="#12263A" font-family="Arial, sans-serif" font-size="24" font-weight="700">Authoritative where possible</text>
  <text x="476" y="522" fill="#50657A" font-family="Arial, sans-serif" font-size="18">Pull vendor telemetry where strong feeds exist to tighten confidence.</text>

  <rect x="854" y="418" width="388" height="128" rx="20" fill="#FFFFFF" stroke="#D7E2DE"/>
  <text x="884" y="454" fill="#335067" font-family="Arial, sans-serif" font-size="14" font-weight="700">ACTION</text>
  <text x="884" y="488" fill="#12263A" font-family="Arial, sans-serif" font-size="24" font-weight="700">Alert before margin slips</text>
  <text x="884" y="522" fill="#50657A" font-family="Arial, sans-serif" font-size="18">Forecast budget and free-tier breaches before invoices surprise you.</text>

  <rect x="38" y="570" width="1204" height="138" rx="22" fill="#E8F5F2" stroke="#B7D6D0"/>
  <text x="74" y="618" fill="#12263A" font-family="Georgia, serif" font-size="34" font-weight="700">Instrument one costly workflow this week.</text>
  <text x="74" y="654" fill="#315167" font-family="Arial, sans-serif" font-size="20">Start with app-side interception, then layer in connector reconciliation where telemetry is strong.</text>
  <rect x="1020" y="612" width="172" height="46" rx="23" fill="#0F766E"/>
  <text x="1043" y="640" fill="#FFFFFF" font-family="Arial, sans-serif" font-size="18" font-weight="700">Request early access</text>
</svg>
